HIERARCHY
ROOT Hips
{
	OFFSET 0.00 0.00 0.00
	CHANNELS 6 Xposition Yposition Zposition Xrotation Yrotation Zrotation
	JOINT Spine
	{
		OFFSET 0.00000 7.06766 0.00000
		CHANNELS 3 Xrotation Yrotation Zrotation
		JOINT Head
		{
			OFFSET 0.00000 15.03989 0.00000
			CHANNELS 3 Xrotation Yrotation Zrotation
			End Site
			{
				OFFSET 0.00000 4.52755 0.00000
			}
		}
		JOINT LeftShoulder
		{
			OFFSET 0.00000 10.53037 0.00000
			CHANNELS 3 Xrotation Yrotation Zrotation
			JOINT LeftArm
			{
				OFFSET 7.02886 0.00000 0.00000
				CHANNELS 3 Xrotation Yrotation Zrotation
				JOINT LeftForeArm
				{
					OFFSET 10.79770 0.00000 0.00000
					CHANNELS 3 Yrotation Zrotation Xrotation
					JOINT LeftHand
					{
						OFFSET 7.90744 0.00000 0.00000
						CHANNELS 3 Xrotation Yrotation Zrotation
						JOINT LeftHandThumb1
						{
							OFFSET 0.00000 0.00000 0.00000
							CHANNELS 3 Xrotation Zrotation Yrotation
							End Site
							{
								OFFSET 0.00000 0.00000 3.93700
							}
						}
						End Site
						{
							OFFSET 3.93700 0.00000 0.00000
						}
					}
				}
			}
		}
		JOINT RightShoulder
		{
			OFFSET 0.00000 10.53037 0.00000
			CHANNELS 3 Xrotation Yrotation Zrotation
			JOINT RightArm
			{
				OFFSET -7.02886 0.00000 0.00000
				CHANNELS 3 Xrotation Yrotation Zrotation
				JOINT RightForeArm
				{
					OFFSET -10.79770 0.00000 0.00000
					CHANNELS 3 Yrotation Zrotation Xrotation
					JOINT RightHand
					{
						OFFSET -7.90744 0.00000 0.00000
						CHANNELS 3 Xrotation Yrotation Zrotation
						JOINT RightHandThumb1
						{
							OFFSET 0.00000 0.00000 0.00000
							CHANNELS 3 Xrotation Zrotation Yrotation
							End Site
							{
								OFFSET 0.00000 0.00000 3.93700
							}
						}
						End Site
						{
							OFFSET -3.93700 0.00000 0.00000
						}
					}
				}
			}
		}
	}
	JOINT LeftUpLeg
	{
		OFFSET 4.01300 0.00000 0.00000
		CHANNELS 3 Xrotation Yrotation Zrotation
		JOINT LeftLeg
		{
			OFFSET 0.00000 -16.89976 0.00000
			CHANNELS 3 Xrotation Yrotation Zrotation
			JOINT LeftFoot
			{
				OFFSET 0.00000 -17.38918 0.00000
				CHANNELS 3 Xrotation Yrotation Zrotation
				JOINT LeftToeBase
				{
					OFFSET 0.00000 -1.27456 4.75673
					CHANNELS 3 Xrotation Yrotation Zrotation
					End Site
					{
						OFFSET 0.00000 0.00000 2.95275
					}
				}
			}
		}
	}
	JOINT RightUpLeg
	{
		OFFSET -4.01300 0.00000 0.00000
		CHANNELS 3 Xrotation Yrotation Zrotation
		JOINT RightLeg
		{
			OFFSET 0.00000 -16.89976 0.00000
			CHANNELS 3 Xrotation Yrotation Zrotation
			JOINT RightFoot
			{
				OFFSET 0.00000 -17.38918 0.00000
				CHANNELS 3 Xrotation Yrotation Zrotation
				JOINT RightToeBase
				{
					OFFSET 0.00000 -1.27456 4.75673
					CHANNELS 3 Xrotation Yrotation Zrotation
					End Site
					{
						OFFSET 0.00000 0.00000 2.95275
					}
				}
			}
		}
	}
}
MOTION
Frames: 23
Frame Time: 0.008333
 19.3117 35.5174 -22.7530 170.3200 -2.5230 178.2369 -20.4222 -0.2757 0.6611 7.8376 -0.8087 2.4233 -33.2045 3.0902 19.1125 -1.2885 -1.2880 -7.8729 2.8205 0.0000 5.8684 1.2275 9.6149 -7.3104 33.1476 -0.0000 26.2537 3.7773 -14.5320 -11.3003 -41.3558 -7.9475 10.4477 5.7116 -0.0000 34.1759 0.9210 -4.4818 11.6254 32.8623 0.0000 -24.3270 0.1626 6.4454 1.4364 -6.6210 0.0000 0.0000 -19.5212 30.7230 5.7324 25.4921 0.0000 -0.0000 -0.4564 -9.2243 1.1938 -3.5901 -0.0000 -0.0000 -18.1920 -29.6511 -0.0489 23.5080 -0.0000 0.0000
 19.3117 35.5173 -22.7535 170.3152 -2.5142 178.2380 -20.4284 -0.2791 0.6689 7.8213 -0.7847 2.3997 -33.2127 3.1159 19.1185 -1.2905 -1.2933 -7.8824 2.8242 0.0000 5.8782 1.2290 9.6064 -7.3255 33.1476 -0.0000 26.2537 3.7746 -14.5297 -11.3090 -41.3567 -7.9553 10.4507 5.7265 -0.0000 34.1872 0.9211 -4.4794 11.6324 32.8623 0.0000 -24.3270 0.1650 6.4444 1.4362 -6.6302 -0.0000 0.0000 -19.5171 30.7287 5.7317 25.5096 -0.0000 0.0000 -0.4602 -9.2152 1.1926 -3.5926 -0.0000 0.0000 -18.1959 -29.6610 -0.0610 23.5386 0.0000 -0.0000
 19.3124 35.5170 -22.7538 170.3156 -2.5078 178.2371 -20.4295 -0.2746 0.6701 7.8113 -0.7851 2.4021 -33.2178 3.1200 19.1374 -1.3602 -1.2568 -7.8963 2.7816 0.0000 6.0039 1.2415 9.5855 -7.4153 33.1476 -0.0000 26.2537 3.7683 -14.5324 -11.3098 -41.3693 -7.9575 10.4521 5.7177 -0.0000 34.2080 0.9243 -4.4986 11.6228 32.8623 0.0000 -24.3270 0.1614 6.4618 1.4374 -6.6220 -0.0000 0.0000 -19.5269 30.7166 5.7418 25.5425 -0.0000 -0.0000 -0.4608 -9.2124 1.1953 -3.5914 0.0000 0.0000 -18.2007 -29.6526 -0.0693 23.5486 -0.0000 -0.0000
 19.3127 35.5169 -22.7540 170.3105 -2.5001 178.2344 -20.4362 -0.2691 0.6800 7.7921 -0.7692 2.3942 -33.2279 3.1281 19.1327 -1.3567 -1.2484 -7.8966 2.7753 0.0000 6.0226 1.2447 9.5822 -7.4365 33.1476 -0.0000 26.2537 3.7514 -14.5209 -11.3164 -41.3095 -7.9790 10.4365 5.7517 -0.0000 34.1700 0.9284 -4.4972 11.6768 32.8623 0.0000 -24.3270 0.1572 6.4707 1.4408 -6.6246 -0.0000 -0.0000 -19.5351 30.7140 5.7438 25.5355 0.0000 -0.0000 -0.4679 -9.2166 1.1985 -3.5895 -0.0000 -0.0000 -18.1925 -29.6505 -0.0495 23.5260 -0.0000 0.0000
 19.3128 35.5167 -22.7545 170.3079 -2.4995 178.2357 -20.4366 -0.2721 0.6814 7.7730 -0.7616 2.3834 -33.2199 3.1550 19.1347 -1.3811 -1.2577 -7.9035 2.7775 0.0000 6.0215 1.2485 9.6117 -7.4365 33.1476 -0.0000 26.2537 3.7364 -14.5239 -11.3170 -41.3036 -7.9772 10.4311 5.7521 -0.0000 34.1769 0.9327 -4.5149 11.6845 32.8623 0.0000 -24.3270 0.1575 6.4549 1.4408 -6.6255 -0.0000 0.0000 -19.5353 30.7175 5.7448 25.5174 0.0000 -0.0000 -0.4693 -9.2128 1.1969 -3.5900 -0.0000 -0.0000 -18.1885 -29.6524 -0.0483 23.4995 0.0000 0.0000
 19.3125 35.5165 -22.7543 170.3028 -2.4921 178.2360 -20.4395 -0.2620 0.6911 7.7506 -0.7510 2.3674 -33.2304 3.1787 19.1175 -1.3031 -1.3164 -7.9070 2.8448 0.0000 5.8853 1.2290 9.5961 -7.3334 33.1476 -0.0000 26.2537 3.7147 -14.5342 -11.3296 -41.2954 -7.9783 10.4306 5.7421 -0.0000 34.1901 0.9305 -4.4991 11.6978 32.8623 0.0000 -24.3270 0.1516 6.4544 1.4411 -6.6219 0.0000 0.0000 -19.5371 30.7254 5.7455 25.5245 0.0000 0.0000 -0.4748 -9.2065 1.1952 -3.5910 0.0000 0.0000 -18.1994 -29.6441 -0.0749 23.5585 0.0000 -0.0000
 19.3124 35.5163 -22.7534 170.2985 -2.4951 178.2362 -20.4369 -0.2640 0.6919 7.7193 -0.7531 2.3660 -33.2413 3.1935 19.1154 -1.3000 -1.3259 -7.9061 2.8651 0.0000 5.8589 1.2301 9.5804 -7.3513 33.1476 -0.0000 26.2537 3.7175 -14.5459 -11.3350 -41.3365 -8.0008 10.4337 5.7655 -0.0000 34.2006 0.9438 -4.5480 11.7367 32.8623 0.0000 -24.3270 0.1444 6.4497 1.4402 -6.6198 0.0000 0.0000 -19.5487 30.7242 5.7688 25.5889 -0.0000 0.0000 -0.4862 -9.2273 1.1950 -3.5782 0.0000 -0.0000 -18.2090 -29.6323 -0.0726 23.5715 0.0000 -0.0000
 19.3130 35.5165 -22.7529 170.2963 -2.4950 178.2400 -20.4357 -0.2626 0.6847 7.7026 -0.7330 2.3718 -33.2448 3.2002 19.1290 -1.3706 -1.2729 -7.9066 2.7884 0.0000 5.9751 1.2524 9.5777 -7.4855 33.1476 -0.0000 26.2537 3.7121 -14.5440 -11.3264 -41.3900 -8.0161 10.4112 5.7428 -0.0000 34.2266 0.9332 -4.4961 11.7385 32.8623 0.0000 -24.3270 0.1279 6.4878 1.4365 -6.5971 -0.0000 -0.0000 -19.5445 30.6916 5.7409 25.5301 0.0000 0.0000 -0.4878 -9.2093 1.1918 -3.5828 0.0000 0.0000 -18.2120 -29.6429 -0.0835 23.5576 0.0000 -0.0000
 19.3136 35.5162 -22.7522 170.2979 -2.4950 178.2389 -20.4286 -0.2626 0.6868 7.6812 -0.7256 2.3696 -33.2683 3.1972 19.1227 -1.3682 -1.2481 -7.8986 2.7688 0.0000 5.9977 1.2541 9.5760 -7.4970 33.1476 -0.0000 26.2537 3.7061 -14.5563 -11.3316 -41.4384 -8.0272 10.4170 5.7245 -0.0000 34.2380 0.9311 -4.5013 11.6995 32.8623 0.0000 -24.3270 0.1342 6.4502 1.4405 -6.6052 -0.0000 -0.0000 -19.5460 30.7237 5.7571 25.5231 0.0000 0.0000 -0.4876 -9.2104 1.1946 -3.5812 -0.0000 -0.0000 -18.2085 -29.6366 -0.0821 23.5053 -0.0000 0.0000
 19.3128 35.5162 -22.7514 170.2990 -2.4968 178.2417 -20.4177 -0.2651 0.6905 7.6357 -0.7296 2.3750 -33.2485 3.2392 19.1144 -1.3968 -1.2733 -7.9000 2.7835 0.0000 5.9973 1.2561 9.5993 -7.4910 33.1476 -0.0000 26.2537 3.6931 -14.5617 -11.3344 -41.4511 -8.0341 10.4055 5.7107 -0.0000 34.2042 0.9265 -4.4823 11.6914 32.8623 0.0000 -24.3270 0.1347 6.4622 1.4276 -6.6212 0.0000 -0.0000 -19.5535 30.7808 5.7568 25.5204 -0.0000 0.0000 -0.4900 -9.2092 1.1898 -3.5778 -0.0000 0.0000 -18.2162 -29.6437 -0.0853 23.4879 -0.0000 0.0000
 19.3129 35.5159 -22.7511 170.2974 -2.5044 178.2358 -20.4148 -0.2759 0.6992 7.6369 -0.7321 2.3421 -33.2249 3.2816 19.1204 -1.3940 -1.2995 -7.9144 2.7877 0.0000 5.9794 1.2605 9.6169 -7.5033 33.1476 -0.0000 26.2537 3.6907 -14.5656 -11.3331 -41.4362 -8.0330 10.3911 5.6731 -0.0000 34.1667 0.9113 -4.4303 11.6355 32.8623 0.0000 -24.3270 0.1286 6.4594 1.4342 -6.6170 -0.0000 0.0000 -19.5648 30.7709 5.7514 25.5532 -0.0000 0.0000 -0.4898 -9.2160 1.1954 -3.5784 -0.0000 -0.0000 -18.2145 -29.6405 -0.0962 23.5357 -0.0000 0.0000
 19.3132 35.5159 -22.7504 170.2982 -2.5105 178.2368 -20.4048 -0.2806 0.6958 7.5929 -0.7230 2.3598 -33.2532 3.2755 19.1065 -1.3830 -1.2733 -7.8949 2.7739 0.0000 6.0169 1.2618 9.6155 -7.5121 33.1476 -0.0000 26.2537 3.6798 -14.5750 -11.3347 -41.4479 -8.0540 10.3939 5.7226 -0.0000 34.1613 0.9277 -4.4851 11.6994 32.8623 0.0000 -24.3270 0.1273 6.4376 1.4410 -6.6005 -0.0000 -0.0000 -19.5623 30.7179 5.7858 25.5661 0.0000 -0.0000 -0.4893 -9.2275 1.1954 -3.5791 0.0000 0.0000 -18.2197 -29.6387 -0.1063 23.5551 -0.0000 0.0000
 19.3131 35.5155 -22.7495 170.2983 -2.5141 178.2366 -20.3980 -0.2841 0.6996 7.5966 -0.7286 2.3283 -33.2550 3.2854 19.0944 -1.3742 -1.2622 -7.8787 2.7711 0.0000 5.9760 1.2625 9.6079 -7.5218 33.1476 -0.0000 26.2537 3.6719 -14.5770 -11.3414 -41.4199 -8.0598 10.3892 5.7226 -0.0000 34.1653 0.9274 -4.4756 11.7193 32.8623 0.0000 -24.3270 0.1272 6.4469 1.4333 -6.6180 -0.0000 -0.0000 -19.5609 30.7654 5.7814 25.5414 0.0000 0.0000 -0.4907 -9.2264 1.1939 -3.5764 -0.0000 0.0000 -18.2195 -29.6366 -0.1023 23.5301 0.0000 -0.0000
 19.3139 35.5155 -22.7484 170.2988 -2.5166 178.2360 -20.3886 -0.2869 0.6972 7.5629 -0.7150 2.3470 -33.2663 3.2976 19.0902 -1.3597 -1.2692 -7.8711 2.7795 0.0000 5.9752 1.2635 9.6232 -7.5163 33.1476 -0.0000 26.2537 3.6886 -14.5970 -11.3297 -41.4326 -8.0494 10.3980 5.7270 -0.0000 34.2493 0.9293 -4.4755 11.7425 32.8623 0.0000 -24.3270 0.1233 6.4338 1.4437 -6.6004 0.0000 0.0000 -19.5722 30.7106 5.7855 25.5666 -0.0000 0.0000 -0.4925 -9.2200 1.1958 -3.5738 -0.0000 -0.0000 -18.2314 -29.6389 -0.1211 23.5538 -0.0000 0.0000
 19.3138 35.5152 -22.7471 170.2912 -2.5189 178.2375 -20.3896 -0.2960 0.7010 7.5686 -0.7166 2.3072 -33.2688 3.3182 19.0861 -1.3436 -1.2619 -7.8651 2.7675 0.0000 6.0039 1.2677 9.6440 -7.5247 33.1476 -0.0000 26.2537 3.7023 -14.6098 -11.3257 -41.3506 -7.9943 10.4071 5.6544 -0.0000 34.2889 0.8966 -4.3326 11.7041 32.8623 0.0000 -24.3270 0.1137 6.4450 1.4404 -6.5981 0.0000 -0.0000 -19.5549 30.6992 5.7800 25.5363 0.0000 -0.0000 -0.5040 -9.2295 1.1943 -3.5707 -0.0000 -0.0000 -18.2354 -29.6407 -0.1289 23.5502 0.0000 0.0000
 19.3151 35.5151 -22.7467 170.2948 -2.5278 178.2346 -20.3807 -0.3002 0.7010 7.5645 -0.7180 2.2961 -33.2644 3.3237 19.0762 -1.3539 -1.2479 -7.8506 2.7710 0.0000 5.9911 1.2646 9.6021 -7.5386 33.1476 -0.0000 26.2537 3.7396 -14.6318 -11.2992 -41.2599 -7.9282 10.3924 5.5872 -0.0000 34.2285 0.8815 -4.2409 11.7530 32.8623 0.0000 -24.3270 0.1175 6.4351 1.4452 -6.6041 -0.0000 0.0000 -19.5509 30.7090 5.7803 25.5145 0.0000 -0.0000 -0.5016 -9.2298 1.1995 -3.5670 0.0000 0.0000 -18.2400 -29.6556 -0.1182 23.5145 0.0000 -0.0000
 19.3153 35.5149 -22.7454 170.2910 -2.5305 178.2362 -20.3724 -0.3012 0.6957 7.5441 -0.7111 2.2955 -33.2685 3.3371 19.0886 -1.3549 -1.2401 -7.8652 2.7839 0.0000 6.0502 1.2544 9.5429 -7.5241 33.1476 -0.0000 26.2537 3.7526 -14.6381 -11.2853 -41.1556 -7.9199 10.3908 5.6284 -0.0000 34.2132 0.8895 -4.2570 11.8136 32.8623 0.0000 -24.3270 0.1031 6.4567 1.4424 -6.5893 -0.0000 0.0000 -19.5576 30.6750 5.7930 25.5438 0.0000 0.0000 -0.5086 -9.2255 1.1963 -3.5637 -0.0000 -0.0000 -18.2505 -29.6582 -0.1149 23.5327 0.0000 -0.0000
 19.3158 35.5151 -22.7447 170.2906 -2.5384 178.2368 -20.3637 -0.2991 0.6912 7.5107 -0.6977 2.3208 -33.2666 3.3508 19.0849 -1.3684 -1.2393 -7.8591 2.7862 0.0000 6.0350 1.2562 9.5458 -7.5323 33.1476 -0.0000 26.2537 3.7617 -14.6630 -11.2831 -41.0604 -7.9072 10.4160 5.6657 -0.0000 34.2859 0.9079 -4.3541 11.7898 32.8623 0.0000 -24.3270 0.0962 6.4617 1.4434 -6.5819 0.0000 0.0000 -19.5611 30.6658 5.7803 25.5485 -0.0000 -0.0000 -0.5099 -9.2219 1.1966 -3.5629 0.0000 0.0000 -18.2526 -29.6554 -0.1315 23.5656 -0.0000 -0.0000
 19.3166 35.5148 -22.7435 170.2901 -2.5408 178.2321 -20.3589 -0.2934 0.6948 7.5274 -0.7171 2.2928 -33.2424 3.3564 19.0888 -1.3875 -1.2288 -7.8672 2.7982 0.0000 5.9953 1.2648 9.5549 -7.5765 33.1476 -0.0000 26.2537 3.7865 -14.6749 -11.2692 -41.0275 -7.8939 10.3924 5.6372 -0.0000 34.2418 0.8900 -4.2706 11.7839 32.8623 0.0000 -24.3270 0.0942 6.4647 1.4483 -6.5862 -0.0000 -0.0000 -19.5617 30.6668 5.7904 25.5118 0.0000 -0.0000 -0.5132 -9.2244 1.2029 -3.5603 0.0000 0.0000 -18.2565 -29.6643 -0.1224 23.5432 0.0000 -0.0000
 19.3177 35.5148 -22.7426 170.2890 -2.5553 178.2273 -20.3499 -0.3087 0.6931 7.5164 -0.7125 2.2939 -33.2398 3.3654 19.0903 -1.3854 -1.2116 -7.8608 2.7975 0.0000 5.9659 1.2650 9.5437 -7.5863 33.1476 -0.0000 26.2537 3.8239 -14.7060 -11.2692 -41.0691 -7.8961 10.4211 5.6552 -0.0000 34.3549 0.8977 -4.3296 11.7255 32.8623 0.0000 -24.3270 0.0928 6.4294 1.4552 -6.5900 -0.0000 0.0000 -19.5650 30.6832 5.7985 25.5559 0.0000 0.0000 -0.5124 -9.2397 1.2068 -3.5604 0.0000 0.0000 -18.2068 -29.6567 -0.0376 23.4020 -0.0000 0.0000
 19.3179 35.5145 -22.7411 170.2869 -2.5548 178.2258 -20.3403 -0.3029 0.6936 7.5062 -0.6983 2.3002 -33.2442 3.3679 19.1041 -1.3828 -1.1977 -7.8693 2.8012 0.0000 5.9225 1.2754 9.5552 -7.6387 33.1476 -0.0000 26.2537 3.8234 -14.7184 -11.2632 -41.0791 -7.8960 10.4043 5.6467 -0.0000 34.3454 0.9094 -4.3825 11.7348 32.8623 0.0000 -24.3270 0.0913 6.4290 1.4574 -6.5957 -0.0000 -0.0000 -19.5672 30.6702 5.8127 25.5578 0.0000 0.0000 -0.5253 -9.2585 1.2106 -3.5423 0.0000 -0.0000 -18.2610 -29.6422 -0.1334 23.5464 0.0000 -0.0000
 19.3185 35.5144 -22.7397 170.2831 -2.5528 178.2178 -20.3393 -0.2938 0.7047 7.5217 -0.7070 2.2873 -33.2231 3.3733 19.1008 -1.4063 -1.1837 -7.8737 2.8058 0.0000 5.9538 1.2753 9.6014 -7.6024 33.1476 -0.0000 26.2537 3.8270 -14.7336 -11.2614 -41.0659 -7.9027 10.3858 5.6668 -0.0000 34.2618 0.8990 -4.3280 11.7467 32.8623 0.0000 -24.3270 0.0842 6.4323 1.4655 -6.5957 0.0000 0.0000 -19.5684 30.6704 5.8156 25.5626 0.0000 -0.0000 -0.5368 -9.2240 1.2144 -3.5272 0.0000 -0.0000 -18.2723 -29.6525 -0.1367 23.5662 -0.0000 0.0000
 19.3188 35.5149 -22.7387 170.2821 -2.5644 178.2122 -20.3330 -0.3080 0.7093 7.5189 -0.6847 2.2911 -33.2349 3.3780 19.1021 -1.3878 -1.1661 -7.8684 2.8074 0.0000 5.9430 1.2779 9.6017 -7.6175 33.1476 -0.0000 26.2537 3.8351 -14.7425 -11.2644 -40.9675 -7.9000 10.3841 5.7090 -0.0000 34.1165 0.9128 -4.3890 11.7613 32.8623 0.0000 -24.3270 0.0818 6.4143 1.4719 -6.5992 -0.0000 -0.0000 -19.5651 30.6797 5.8130 25.5680 -0.0000 0.0000 -0.5371 -9.2334 1.2193 -3.5295 -0.0000 -0.0000 -18.2186 -29.6804 -0.0260 23.3739 -0.0000 0.0000
